# xmcd
#
# Track frame offsets: 
#        150
#        13689
#        27081
#        38486
#        60113
#        73515
#        83189
#        97165
#        109004
#        128260
#        143326
#        157616
#        177925
#        190472
#
# Disc length: 2791 seconds
#
# Revision: 0
# Processed by: cddbd v1.5PL3 Copyright (c) Steve Scherf et al.
# Submitted via: ExactAudioCopy v0.95a5
#
DISCID=9d0ae50e
DTITLE=Bill And Maggie Anderson - River Of Life
DYEAR=2001
DGENRE=Bluegrass
TTITLE0=Shenandoah Wind
TTITLE1=Little Mountain Church House
TTITLE2=Gold Watch And Chain
TTITLE3=The L&N Don't Stop Here Anymore
TTITLE4=The Baptism Of Jesse Taylor
TTITLE5=Jimmy Brown The Newsboy
TTITLE6=Jimmy Brown Revisited
TTITLE7=Till The End Of The World Rolls Round
TTITLE8=There Is A Fountain
TTITLE9=Second Wind
TTITLE10=Hard Freeze
TTITLE11=Who Will Watch The Home Place
TTITLE12=River Of Life
TTITLE13=Prayer For The Road
EXTD=
EXTT0=
EXTT1=
EXTT2=
EXTT3=
EXTT4=
EXTT5=
EXTT6=
EXTT7=
EXTT8=
EXTT9=
EXTT10=
EXTT11=
EXTT12=
EXTT13=
PLAYORDER=
